<?xml version="1.0" encoding="UTF-8"?>
<svg id="Globe" xmlns="http://www.w3.org/2000/svg" xmlns:xlink="http://www.w3.org/1999/xlink" version="1.1" viewBox="0 0 140.8 52.8">
  <!-- Generator: Adobe Illustrator 29.7.1, SVG Export Plug-In . SVG Version: 2.1.1 Build 8)  -->
  <defs>
    <style>
      .st0 {
        clip-path: url(#clippath-1);
      }

      .st1 {
        fill: #fff;
      }

      .st2 {
        clip-path: url(#clippath);
      }
    </style>
    <clipPath id="clippath">
      <path class="st1" d="M107.47,22.97v15.64h19.45v-6.41h-12.12v-2.69h12.15v-5.3h-12.15v-1.24h-7.34ZM77,21.67c-1.43,0-2.73-.59-3.65-1.54v18.48h7.31v-18.48c-.93.95-2.22,1.54-3.65,1.54M36.15,15.18l-1.7,10.14c-.08.5-.16,1.03-.22,1.58-.07.55-.13,1.14-.18,1.76-.06-.61-.13-1.2-.21-1.76-.08-.56-.17-1.09-.26-1.59l-2.03-10.12h-6.97l-2.03,10.14c-.09.5-.18,1.03-.25,1.58-.08.56-.15,1.15-.21,1.76-.06-.6-.13-1.18-.19-1.73-.06-.55-.14-1.09-.22-1.61l-1.7-10.14h-6.99v.38l4.79,23.06h7.12l2.64-12.47c.07-.36.15-.86.25-1.47.09-.62.19-1.3.29-2.04.09.74.18,1.42.27,2.03.09.61.17,1.11.25,1.48l2.65,12.47h7.11l4.87-23.44h-7.06ZM63.92,15.18l-1.7,10.14c-.08.5-.16,1.03-.22,1.58-.07.55-.13,1.14-.18,1.76-.06-.61-.13-1.2-.21-1.76-.08-.56-.17-1.09-.26-1.59l-2.03-10.12h-6.97l-2.03,10.14c-.09.5-.18,1.03-.25,1.58-.08.56-.15,1.15-.21,1.76-.06-.6-.12-1.18-.19-1.73-.06-.55-.14-1.09-.22-1.61l-1.7-10.14h-2.67l-2.2,10.57,2.68,12.87h7.12l2.64-12.47c.07-.36.15-.86.25-1.47.09-.62.19-1.3.29-2.04.09.74.18,1.42.27,2.03.09.61.17,1.11.25,1.48l2.65,12.47h7.11l4.87-23.44h-7.06ZM89.99,15.18c-2.47,0-4.24.36-5.31,1.08-1.07.72-1.6,1.89-1.6,3.53v5.62c0,1.59.45,2.7,1.35,3.33.9.62,2.75.94,5.56.94h8.09v2.54h-15.15v6.41h17.12c1.61,0,2.88-.37,3.78-1.12.91-.75,1.36-1.77,1.36-3.08v-5.74c0-1.56-.42-2.71-1.27-3.45-.85-.74-2.17-1.1-3.97-1.1h-9.73v-2.6h36.68v-6.34h-36.92Z"/>
    </clipPath>
    <clipPath id="clippath-1">
      <path class="st1" d="M78.75,15.68c-.06,0-.11.02-.17.02.01.06.14.03.18.03,0-.01,0-.03,0-.05h-.02M77.12,15.6s0,0,0,0c0,0,0,0,0,0h0ZM77.16,15.58s-.03.02-.04.02h0s0,0,0,0c0,0,0,0,0,0,0,0,0,0,0,0,0,.01,0,.04,0,.05.04,0,.07-.02.04-.05.02,0,.04,0,.06,0,0-.03,0-.03-.02-.03,0,0-.02.01-.04.02M79.21,15.48s-.1.06-.09.09c.04,0,.09-.05.08-.08h.02s0-.01,0-.01ZM72.55,15.36s-.03.01-.04.03c.07,1.31.7,2.48,1.66,3.25,0,0,.01,0,.02,0,0-.02-.03-.04-.04-.07-.01-.02-.02-.05-.03-.07-.02-.05-.03-.09-.03-.14.06,0,.14-.02.14-.09,0-.07-.05-.13-.1-.17-.06-.04-.12-.09-.16-.15-.02-.03-.04-.07-.07-.1-.03-.04-.05-.05-.1-.07-.05-.02-.1-.06-.13-.1-.02-.02-.03-.05-.04-.08-.01-.02-.03-.1-.05-.11,0,0-.01,0-.02,0,0,0-.01,0-.02,0-.02,0-.01-.01-.03-.03-.03-.03-.04-.05-.05-.09-.02-.07-.07-.13-.1-.19-.03-.08-.07-.15-.09-.23-.02-.06-.06-.12-.1-.17-.04-.05-.09-.08-.12-.13-.03-.05-.05-.08-.05-.14,0-.07-.04-.13-.07-.19-.02-.06-.06-.1-.06-.17,0-.05,0-.1-.01-.15,0-.02-.01-.04-.02-.05-.01-.02-.02-.02-.03-.02,0,0,0,0-.02,0-.05-.01-.06-.03-.07-.08,0-.03,0-.07-.02-.1,0-.02-.02-.02-.02-.04,0-.02,0-.03,0-.05,0-.02,0-.04,0-.06-.01-.03-.02-.02-.04-.05-.04-.04,0-.07-.01-.11,0,0-.02-.01-.03-.02-.01-.02,0-.03-.01-.05,0-.02-.02-.02-.03-.02h0ZM72.81,15.37s.03.03.03.06c.02-.05-.01-.08-.04-.11,0,.02,0,.04,0,.05M77.52,15.3h0s0,0,0,0c0,.03,0,.06,0,.09,0,.03.04.04.03.07h-.02s-.02.01-.03.01c0,.03,0,.1,0,.14.04,0,.05.04.07,0,.01-.02,0-.08,0-.11,0-.04-.02-.05-.03-.09,0-.03,0-.08,0-.11,0,0-.02,0-.03,0h0ZM72.8,15.32h0s-.02-.02-.02-.02c0,0,.01.01.02.02M72.67,14.96c0,.06,0,.11.02.16.02.04.08.09.07.13h0s0-.01.01-.01c0-.06.01-.28-.09-.28,0,0-.01,0-.02,0M72.66,14.74v.02s.02,0,.02.01c.1.03,0-.16,0-.19-.03.01-.01.12-.01.15M76.54,14.22s-.03.03-.05.07h-.02s-.04,0-.05.03c0,.03.01.08.03.11-.02.03-.09.07-.04.1.03.02.1-.02.13-.03h-.02c.05,0,.08-.01.09-.07,0-.04-.02-.1.02-.12,0-.05,0-.08-.06-.08,0,0-.01,0-.02,0h0ZM72.66,14.19h0s-.02.2-.02.24c0,.03.03.06.03.1,0,.03.02.06.03.09,0-.06,0-.12-.02-.17,0-.03.02-.15-.01-.17,0-.02.01-.08-.02-.08,0,0,0,0,0,0M76.72,13.93s-.05.05-.05.09c0,0-.01,0-.02,0,0,0-.01,0-.02,0,0,.04-.04.15.02.16,0,0,0,.02,0,.03.01,0,.02,0,.04-.02,0,.03-.01.05-.01.08.04,0,.06.02.06.06,0,.03-.02.06-.05.06,0,.02,0,.06,0,.08,0,.02-.03.03-.04.05.11-.03-.03.14-.02.16.1-.04.2-.04.31-.05.07,0,.07-.02.08-.08,0-.05.02-.09,0-.13-.02-.04-.07-.06-.1-.09-.03-.04-.03-.08-.06-.12-.01-.02-.04-.03-.04-.05,0-.03,0-.02.02-.05.02-.04.03-.09-.03-.09,0,0-.02,0-.03,0h0s-.02,0-.03,0c.01-.05.07-.06.06-.12-.02,0-.07.03-.09.04M76.14,13.2s-.01,0-.02,0c-.06.01-.07.07,0,.06,0,0,0,.02,0,.03-.02,0-.04,0-.05,0-.02.07.09.02.07.1h-.02s-.04,0-.05.01c.01.02.05.03.06.03,0,0,.01.02.02.03.01,0,.03,0,.04,0,0,0,.01,0,.02,0,.08,0,.12-.04.18-.08.14-.12-.11-.18-.2-.11h0s-.03-.01-.03-.04c0-.02,0-.04-.03-.04h0ZM74.22,12.59h0s0,0,0,0M78.16,15.41c-.08-.05-.18-.07-.26-.12-.07-.04-.19-.14-.17-.23.05,0,.09.04.13.05.02,0,.04,0,.06.02.02,0,.03.03.04.04.02,0,.04.01.05.02.03.01.05.05.09.06.02,0,.04,0,.06,0,.02,0,.04,0,.06,0,0,.05-.04.07,0,.12.02.03.05.05.08.07,0,0,.05.03.05.03.01.02,0,.04.02.06,0,.02.03.03.04.05,0,0,.02.05.03.05.05.04.07,0,.1-.03.01-.02.02-.03.04-.04.02-.02.04,0,.03-.05,0-.07-.25-.12-.13-.2.05-.04.1-.06.16-.06.08,0,.06-.07.15-.07,0-.02-.01-.03-.03-.05.02.01.04.03.04.05-.06,0-.12.04-.14.11-.01,0-.02,0-.03,0,0,.05.05.03.07.05.03.03-.02.07.05.08,0,.02,0,.05,0,.07.02,0,.05,0,.07,0s.05,0,.07,0c0,.03.01.03.03.03.04.01.04,0,.06-.02,0,0,0-.02,0-.02.01,0,.03,0,.04-.02,0,0,.03-.03.04-.03.01,0,.03,0,.04,0,.02,0,.03,0,.04,0,.05-.02.01-.01.03-.04.03-.04.08-.05.13-.03,0,.03,0,.05,0,.08.07.02.05.2.04.26,0,.05-.01.08-.06.11-.03.02-.06.02-.09.02-.02,0-.04,0-.07,0-.04.01-.07.06-.1.09-.03.03-.05.03-.08.03-.01,0-.03,0-.05,0-.05,0-.09.03-.14.04-.05,0-.1,0-.15.02,0-.07-.08-.07-.14-.04-.07.03-.07.1-.07.17,0,.1-.03.08-.11.07-.04,0-.09,0-.13,0-.03,0-.06,0-.09,0,0-.07,0-.08-.07-.09-.02,0-.04,0-.07,0-.03,0-.07,0-.1,0-.04,0-.11-.02-.13-.05-.04-.05.01-.06.03-.1.02-.05-.01-.08-.03-.13,0-.03,0-.04-.02-.05-.01,0-.07,0-.08,0-.11.02-.23.02-.35.03-.15.02-.26.09-.39.16-.06.03-.14.04-.2.02-.02,0-.07-.04-.1-.05,0-.02,0-.04,0-.06.08,0,.11,0,.18-.04.06-.03.14-.03.19-.07.07-.06,0-.09,0-.15.01-.05.08-.06.07-.13.03,0,.06,0,.09,0,.03-.04.05-.07.05-.12,0-.07,0-.09.08-.08.06.01.09.04.14-.01.03-.03.04-.08.09-.1.09-.04.12.1.18.14.04.03.09.06.13.08.02,0,.04,0,.06.01.02,0,.04.03.06.04.02,0,.04,0,.06.02.03.02.02.05.06.04,0,.06.02.12-.05.15-.02,0-.05,0-.07,0-.03,0-.04.02-.07.03.05.06.09.09.17.1,0-.02,0-.05,0-.07,0-.04,0-.02.03-.05.02-.03.06-.08.09-.1.05-.08-.04-.06-.03-.14,0,0,.02,0,.04.02.02,0,.03.02.05.02.01,0,.02-.01.01-.04M79.04,14.67c.07-.05.2-.03.29,0,.07.03.13.12.05.19-.06.06-.16.06-.24.06-.1,0-.15,0-.21.09-.06.08-.1.08-.19.11-.01-.01-.03-.03-.03-.04-.02-.04,0-.11,0-.16,0-.06.01-.13.02-.19,0-.05.02-.09.09-.07.04,0,.07.06.1.07,0,0,.01,0,.02,0,.04,0,.07-.04.11-.07M79.86,14.82s-.02-.05-.02-.08c0-.03-.04-.1-.01-.13.01-.01.02-.03.02-.04-.03-.02-.07,0-.1-.02-.03,0-.07-.03-.1-.05-.04-.02-.03-.04-.06-.08-.02-.03-.07-.03-.09-.06-.01-.03,0-.08-.01-.11,0-.02-.02-.02,0-.05,0-.02.02-.03.03-.05.03-.04.07-.15.13-.14,0,.05.05.06.04.11,0,0-.01,0-.02,0,0,0-.01,0-.02,0,0,.04,0,.07,0,.11-.1,0,.04.06.07.07.05.01.08,0,.12.04.03.03.05.08.07.11.03.05.04.05.1.06,0,.04,0,.08.03.11.03.03.08.04.07.08-.02.07-.13.08-.19.09,0,.02-.02.03-.04.03,0,0-.01,0-.02,0M73.39,13.26c-.03-.08.05-.04.07-.03.02.02.03.03.06.02.02,0,.04.02.05.04,0,.01.01.03,0,.04,0,.01,0,.03-.02.04,0,0-.02,0-.02,0,0,0,0,0,0-.01,0-.01,0-.03,0-.04,0-.02,0-.05-.02-.06,0,0-.02.03-.02.03-.01,0-.02,0-.03,0-.03,0-.05-.01-.06-.03M80.17,13.1h0s0,0,0,0M73.52,13.08c.05,0,.08-.09.12-.12,0,.04,0,.09,0,.13,0,.03-.05.09-.05.02-.03,0-.04.04-.07.04,0-.02,0-.05.02-.06h0s0,0,0-.02M74.74,12.75s-.06-.02-.07-.03h0s.04,0,.05,0h-.04s.2,0,.12.07c-.01.01-.07.02-.09.03-.01,0-.01.02-.03.03,0,.01-.03.02-.05.02.01,0,.03,0,.04-.02,0-.02-.03-.06-.03-.08,0,0,.02,0,.04,0,.03,0,.06,0,.06-.02M76.52,12.61h0s0,.04,0,.05c-.01.02-.04.03-.06.05-.03.04-.04.1-.08.12-.01-.08.09-.18.14-.22M73.4,13.03c0-.05.04-.07.08-.09.03-.02.08-.08.13-.08.04-.03.07.01.09-.06.01-.06,0-.15,0-.21.06.06.12.05.09.15,0,.02,0,.08-.02.09-.01.02-.03.02-.05.02-.01,0-.02,0-.03,0-.05.01-.08.08-.13.1-.04.02-.05.03-.08.06-.02.02-.03.03-.06.03,0,0,0,0-.02,0M74.25,12.49c.01-.06.04-.08.07-.12.02-.03.01-.07.02-.11,0-.07.01-.05.07-.09.05-.03.03-.06.06-.1.03-.03.07-.03.12-.03.06,0,.07.02.12.04.04.01.11,0,.1.06,0,0-.03,0-.04,0,0-.03,0-.03-.02-.03-.02.04-.05.04-.09.04,0,.07.06.05.09.09-.02.02-.04.03-.06.04-.01.05.05.02.03.08,0,.01-.08.06-.01.07-.02.06-.14.08-.19.1-.08.03-.05.08-.11.13-.06.06-.11.05-.19.06-.06,0-.11.08-.16.08,0-.02.03-.02.05-.04.02-.02.03-.05.04-.07.02-.03.04-.09.08-.1h-.01s.03-.06.04-.1M75.97,11.92s.03,0,.04,0c-.07.05-.14.12-.25.09-.08-.03.01-.03.05-.03.05,0,.1-.04.15-.04h0ZM77.05,10.72h0c-.06,0-.1.03-.1.03,0,0-.04.01-.04.03,0,0,.02.05,0,.04-.07-.04-.14.02-.21.03-.09.01-.13,0-.19.07-.06.06-.06.05-.15.06-.03,0-.06.03-.09.04-.01,0-.02,0-.04,0,.03-.01.05-.02.08-.04.07-.03.14,0,.16-.09-.03,0-.06,0-.09,0-.04,0-.09,0-.11-.02.05,0,.02-.05.06-.06-.08.02-.18,0-.27.02-.16.02-.3.13-.45.18-.19.05-.37.14-.55.2-.14.05-.27.07-.4.13-.76.47-1.38,1.16-1.75,1.99,0,.07,0,.15,0,.22,0,.1,0,.24-.03.33-.01.03-.03.07-.05.1-.02.03-.04.08-.06.11-.02.03-.04.03-.03.07,0,.03,0,.07.03.08.06.03.1-.1.11-.14.02-.06.05-.13.08-.19.03-.05.07-.02.11,0,.04.03.09.05.14-.01.03-.04.05-.09.07-.14.11,0,.18-.11.26.03.05-.12.19-.18.29-.07-.05.03-.11.04-.1.11.1,0,.36.09.31-.09-.03.02-.04.04-.07.05.05-.06.01-.16.05-.23.02-.04.07-.07.05-.11-.02-.04-.07,0-.09-.06.05,0,.12-.02.15.03.04.06,0,.14.09.14.02,0,.04,0,.06-.02.04-.02.08-.04.1.02.03.09-.17.12-.21.16-.07.05-.02.04,0,.09.03.06,0,.08-.01.13.03,0,.07-.03.1,0,0,0-.02.01-.03.02,0,.03-.01.05,0,.09.12,0,.06-.08.11-.15.02-.03.09-.04.07-.09,0-.03-.06-.03-.09-.03,0,0,.01-.03.02-.04-.02,0-.05,0-.05,0,.08,0,.21-.17.24-.23.02-.05.03-.1.02-.16,0-.05-.03-.09,0-.14.02-.04.08-.06.1-.1.02-.04.03-.07.06-.12.04-.06.04-.08.11-.09.02,0,.03,0,.04,0,.04,0,.06,0,.08-.06.11,0,.21.02.31.03.01.07-.06.07-.08.12-.03.06,0,.08-.04.14-.03.04-.09.06-.08.12,0,.05.06.08.1.06,0,.02.01.04,0,.06.02,0,.04,0,.06.01.03,0,.06.02.09,0,.04-.02.05-.08.09-.11.04-.04.08-.03.13-.05.06-.02.11-.06.17-.06.07,0,.14,0,.21,0,.07,0,.15.02.22,0,.05,0,.1-.03.15-.05.04-.01.1-.06.15-.05,0,.04.02.05.06.05,0-.06,0-.12.02-.17-.02,0-.04,0-.06.01-.01-.06-.06-.03-.11,0-.03.02-.05.03-.07.03.02-.05.09-.1.15-.09.05.01.13.11.11-.03.05,0,.36-.03.28-.12,0,0,.02-.02.02-.02-.02-.02-.08,0-.13.01-.04.01-.08.03-.11.02.03-.02.06-.03.09-.05.03-.02.04-.05.07-.07.03-.03.06-.02.1-.04.07-.03.05-.03.06-.11,0-.08.05-.11.1-.17.03-.03.03-.06.08-.07.02,0,.03,0,.05,0,.03,0,.05,0,.08-.03.08.07-.06.08-.08.11-.03.04.11.18.15.21.05.04.13.03.18.02-.02-.03-.06-.06-.05-.1.06,0,.08.04.13.06.06.01.1-.03.15-.04.1-.01.07.01.11-.07.02-.04.03-.12.09-.1,0,.08.01.19.13.18.09-.01.02-.16.11-.13,0,.1.01.14.08.21.06.06.08.13.06.21.02,0,.05.01.07,0,0-.05-.02-.17.05-.17,0,.1-.04.17-.02.27-.03-.02-.07-.07-.11-.08,0,.05.13.15.04.17,0,.07,0,.13,0,.2,0,0-.02,0-.03,0,0,.01.01.03.02.04-.03,0-.13-.09-.16-.12.07,0,.17,0,.15-.09-.01-.07-.1-.07-.16-.08-.03,0-.06,0-.1-.02-.03,0-.07-.02-.09-.03-.05,0-.05,0-.07.03-.02.03.02.08-.05.06-.02-.08.08-.15-.07-.14-.07,0-.14.04-.13.13-.07,0-.09.06-.11.11-.02.05-.04.12-.05.18-.01.05,0,.13-.02.18-.02.06-.07.08-.12.11-.11.08-.13.16-.13.29,0,.17.06.18.23.17-.02-.08.04-.11.08-.05.01.02.01.06.03.08.01.02.06.04.07.06.01.04-.06.12-.03.16.03.05.14,0,.11-.06,0,0,.01,0,.02,0,0,0,.02,0,.02,0,0-.01,0-.03,0-.04.09.02.04-.25.1-.3.01-.07-.02-.08-.05-.13-.02-.04-.03-.09-.03-.14,0-.06.02-.09.02-.14,0-.05-.04-.14,0-.18.05-.05.11,0,.1.06,0,.04-.05.07-.06.11-.02.07.02.09.04.14.02.06,0,.11,0,.17,0,0,0,0-.01,0,0,0,0,0-.01,0,0,0,0,.02,0,.02.06,0,.15,0,.2-.04.07-.06.05-.09.16-.08,0,.05-.17.16-.22.16,0,.08.01.13.03.2.02.05.03.18-.03.21-.09-.09-.11,0-.2.05-.06.03-.17.04-.25.04,0-.01,0-.03,0-.04,0,0,0,0,0,0,0,0-.01,0-.01,0,0-.05.02-.11,0-.16-.01-.04-.08-.11-.08-.03-.01,0-.02,0-.04.01-.03.11.06.24-.05.29-.05.03-.1.02-.13.09-.03.08,0,.07-.08.12,0,0,0,.02,0,.03-.02,0-.02.02-.05.03-.01.04-.02.05-.03.09-.02,0-.07.05-.09.05-.02,0-.03,0-.04-.02-.01,0-.03-.02-.05-.02-.04,0-.1.06-.14.08-.09.06,0,.07.06.1.09.04.12.16.12.25,0,.06.01.1-.05.12-.04.01-.13,0-.17,0-.08-.01-.22-.1-.29-.04,0,0,0,.02,0,.02-.04,0-.02.18-.02.22,0,.09-.04.12-.04.21.08-.02.01.09.02.13.01,0,.03,0,.05,0,.04,0,.09,0,.11,0,.03.02,0,.06.02.08.01.02.05.03.07.04-.02,0-.03-.01-.04,0-.03.02-.03.08-.05.11-.03.06-.08.04-.15.07-.04.02-.1.07-.13.11-.04.06,0,.12-.02.18-.02.05-.09.09-.13.1-.02,0-.03,0-.04,0-.02,0-.03,0-.05.01-.03.02-.04.06-.06.08-.06.05-.08.03-.11.1-.02.06-.05.1-.1.15-.03.03-.07.05-.09.09-.05.08,0,.03.02.11.01.04,0,.1,0,.13,0,.04,0,.11,0,.15-.01.04-.05.09-.07.12,0,.02-.03.03-.03.06,0,.04.02.03.03.05.01.05,0,.09.03.13.03.04.1.04.1.09.03.01.05.04.04.07.11-.03.05.1.08.15.03.04.1.07.14.11.1.09.21.16.34.17.07,0,.14,0,.21,0,.07,0,.15-.01.22,0,.02,0,.08.03.1.03.04,0,.03-.02.07-.05.06-.04.16-.02.23-.03.04,0,.08,0,.11,0,.04,0,.07-.05.11-.04.03,0,.05.04.07.06.04.04.02.03.08.04.03,0,.06,0,.1,0,.1,0,.21-.01.21.12,0,.07-.07.15-.03.22.03.05.17.11.22.14,0,.05.02.1.06.13,0,.08.05.09,0,.16-.03.04-.1.06-.13.1-.03.07.03.1.07.13.04.03.07.06.09.11.01.04.02.09.04.11.6-.15,1.15-.41,1.62-.77.02-.03,0-.06.01-.09.02-.04.05-.06.06-.11.04-.1.09-.19.14-.28.04-.08.05-.07.05-.16,0-.08.04-.13.06-.21.07-.24.24-.41.36-.61.06-.1.12-.23.16-.34.04-.12.02-.27.02-.4-.05.1-.13.19-.2.27-.05.05-.21.12-.21,0-.08-.02-.22,0-.27-.07-.03-.03-.03-.07-.06-.1-.03-.02-.07-.02-.1-.04,0-.06,0-.12-.04-.16-.03-.04-.01-.02-.06-.04-.05-.02-.03,0-.07-.04-.07-.07-.11-.24-.2-.26,0-.01-.01-.03,0-.04.06,0,.11-.08.16-.05.04.03,0,.1.08.08,0,.04.03.07.07.07,0,.11.07.05.13.11.03.03.02.05.04.09.03.06.03.04.09.06.06.02.15.07.18.13.01.03.01.07.02.09.01.04.04.06.04.1.02.01.03.03.04.06.06,0,.19-.2.23-.26.09-.1.12-.2.16-.32.02-.06.05-.11.07-.16.03-.05.02-.11.04-.16.02-.05.06-.08.08-.14.01-.06.01-.12.02-.18,0-.05,0-.13-.02-.17-.01,0-.04,0-.06,0-.03,0-.05,0-.06,0-.05-.02-.03-.07-.07-.1,0,.06-.02.14-.03.2-.01.06-.08.11-.12.14,0-.04.01-.09-.03-.12-.05.08-.2.01-.24-.06-.07-.13.1-.13.18-.09,0,0,0,.01,0,.02.06,0,.14.02.18-.03.04-.06-.02-.12.1-.1,0,0,0,.01,0,.02.12,0,.13-.07.18-.15.03-.04.05-.07.07-.12.01-.04,0-.12.07-.11,0,.05.05.05.07.07.06,0,.11,0,.15-.04.06.05.09.18.13.25.04.07.08.13.11.21.02.06.06.11.1.17.01-.14.02-.27.02-.41,0-2.04-1.36-3.76-3.22-4.3-.08,0-.28-.02-.28-.03-.01-.05-.1-.04-.17-.04-.03,0-.06,0-.07,0-.08-.01-.17-.04-.26-.05-.1-.01-.21,0-.32,0-.02,0-.06,0-.11,0h0Z"/>
    </clipPath>
  </defs>
  <g>
    <path class="st1" d="M107.47,22.97v15.64h19.45v-6.41h-12.12v-2.69h12.15v-5.3h-12.15v-1.24h-7.34ZM77,21.67c-1.43,0-2.73-.59-3.65-1.54v18.48h7.31v-18.48c-.93.95-2.22,1.54-3.65,1.54M36.15,15.18l-1.7,10.14c-.08.5-.16,1.03-.22,1.58-.07.55-.13,1.14-.18,1.76-.06-.61-.13-1.2-.21-1.76-.08-.56-.17-1.09-.26-1.59l-2.03-10.12h-6.97l-2.03,10.14c-.09.5-.18,1.03-.25,1.58-.08.56-.15,1.15-.21,1.76-.06-.6-.13-1.18-.19-1.73-.06-.55-.14-1.09-.22-1.61l-1.7-10.14h-6.99v.38l4.79,23.06h7.12l2.64-12.47c.07-.36.15-.86.25-1.47.09-.62.19-1.3.29-2.04.09.74.18,1.42.27,2.03.09.61.17,1.11.25,1.48l2.65,12.47h7.11l4.87-23.44h-7.06ZM63.92,15.18l-1.7,10.14c-.08.5-.16,1.03-.22,1.58-.07.55-.13,1.14-.18,1.76-.06-.61-.13-1.2-.21-1.76-.08-.56-.17-1.09-.26-1.59l-2.03-10.12h-6.97l-2.03,10.14c-.09.5-.18,1.03-.25,1.58-.08.56-.15,1.15-.21,1.76-.06-.6-.12-1.18-.19-1.73-.06-.55-.14-1.09-.22-1.61l-1.7-10.14h-2.67l-2.2,10.57,2.68,12.87h7.12l2.64-12.47c.07-.36.15-.86.25-1.47.09-.62.19-1.3.29-2.04.09.74.18,1.42.27,2.03.09.61.17,1.11.25,1.48l2.65,12.47h7.11l4.87-23.44h-7.06ZM89.99,15.18c-2.47,0-4.24.36-5.31,1.08-1.07.72-1.6,1.89-1.6,3.53v5.62c0,1.59.45,2.7,1.35,3.33.9.62,2.75.94,5.56.94h8.09v2.54h-15.15v6.41h17.12c1.61,0,2.88-.37,3.78-1.12.91-.75,1.36-1.77,1.36-3.08v-5.74c0-1.56-.42-2.71-1.27-3.45-.85-.74-2.17-1.1-3.97-1.1h-9.73v-2.6h36.68v-6.34h-36.92Z"/>
    <g class="st2">
      <rect class="st1" x="12.97" y="15.18" width="113.98" height="23.44"/>
    </g>
  </g>
  <g>
    <path class="st1" d="M78.75,15.68c-.06,0-.11.02-.17.02.01.06.14.03.18.03,0-.01,0-.03,0-.05h-.02M77.12,15.6s0,0,0,0c0,0,0,0,0,0h0ZM77.16,15.58s-.03.02-.04.02h0s0,0,0,0c0,0,0,0,0,0,0,0,0,0,0,0,0,.01,0,.04,0,.05.04,0,.07-.02.04-.05.02,0,.04,0,.06,0,0-.03,0-.03-.02-.03,0,0-.02.01-.04.02M79.21,15.48s-.1.06-.09.09c.04,0,.09-.05.08-.08h.02s0-.01,0-.01ZM72.55,15.36s-.03.01-.04.03c.07,1.31.7,2.48,1.66,3.25,0,0,.01,0,.02,0,0-.02-.03-.04-.04-.07-.01-.02-.02-.05-.03-.07-.02-.05-.03-.09-.03-.14.06,0,.14-.02.14-.09,0-.07-.05-.13-.1-.17-.06-.04-.12-.09-.16-.15-.02-.03-.04-.07-.07-.1-.03-.04-.05-.05-.1-.07-.05-.02-.1-.06-.13-.1-.02-.02-.03-.05-.04-.08-.01-.02-.03-.1-.05-.11,0,0-.01,0-.02,0,0,0-.01,0-.02,0-.02,0-.01-.01-.03-.03-.03-.03-.04-.05-.05-.09-.02-.07-.07-.13-.1-.19-.03-.08-.07-.15-.09-.23-.02-.06-.06-.12-.1-.17-.04-.05-.09-.08-.12-.13-.03-.05-.05-.08-.05-.14,0-.07-.04-.13-.07-.19-.02-.06-.06-.1-.06-.17,0-.05,0-.1-.01-.15,0-.02-.01-.04-.02-.05-.01-.02-.02-.02-.03-.02,0,0,0,0-.02,0-.05-.01-.06-.03-.07-.08,0-.03,0-.07-.02-.1,0-.02-.02-.02-.02-.04,0-.02,0-.03,0-.05,0-.02,0-.04,0-.06-.01-.03-.02-.02-.04-.05-.04-.04,0-.07-.01-.11,0,0-.02-.01-.03-.02-.01-.02,0-.03-.01-.05,0-.02-.02-.02-.03-.02h0ZM72.81,15.37s.03.03.03.06c.02-.05-.01-.08-.04-.11,0,.02,0,.04,0,.05M77.52,15.3h0s0,0,0,0c0,.03,0,.06,0,.09,0,.03.04.04.03.07h-.02s-.02.01-.03.01c0,.03,0,.1,0,.14.04,0,.05.04.07,0,.01-.02,0-.08,0-.11,0-.04-.02-.05-.03-.09,0-.03,0-.08,0-.11,0,0-.02,0-.03,0h0ZM72.8,15.32h0s-.02-.02-.02-.02c0,0,.01.01.02.02M72.67,14.96c0,.06,0,.11.02.16.02.04.08.09.07.13h0s0-.01.01-.01c0-.06.01-.28-.09-.28,0,0-.01,0-.02,0M72.66,14.74v.02s.02,0,.02.01c.1.03,0-.16,0-.19-.03.01-.01.12-.01.15M76.54,14.22s-.03.03-.05.07h-.02s-.04,0-.05.03c0,.03.01.08.03.11-.02.03-.09.07-.04.1.03.02.1-.02.13-.03h-.02c.05,0,.08-.01.09-.07,0-.04-.02-.1.02-.12,0-.05,0-.08-.06-.08,0,0-.01,0-.02,0h0ZM72.66,14.19h0s-.02.2-.02.24c0,.03.03.06.03.1,0,.03.02.06.03.09,0-.06,0-.12-.02-.17,0-.03.02-.15-.01-.17,0-.02.01-.08-.02-.08,0,0,0,0,0,0M76.72,13.93s-.05.05-.05.09c0,0-.01,0-.02,0,0,0-.01,0-.02,0,0,.04-.04.15.02.16,0,0,0,.02,0,.03.01,0,.02,0,.04-.02,0,.03-.01.05-.01.08.04,0,.06.02.06.06,0,.03-.02.06-.05.06,0,.02,0,.06,0,.08,0,.02-.03.03-.04.05.11-.03-.03.14-.02.16.1-.04.2-.04.31-.05.07,0,.07-.02.08-.08,0-.05.02-.09,0-.13-.02-.04-.07-.06-.1-.09-.03-.04-.03-.08-.06-.12-.01-.02-.04-.03-.04-.05,0-.03,0-.02.02-.05.02-.04.03-.09-.03-.09,0,0-.02,0-.03,0h0s-.02,0-.03,0c.01-.05.07-.06.06-.12-.02,0-.07.03-.09.04M76.14,13.2s-.01,0-.02,0c-.06.01-.07.07,0,.06,0,0,0,.02,0,.03-.02,0-.04,0-.05,0-.02.07.09.02.07.1h-.02s-.04,0-.05.01c.01.02.05.03.06.03,0,0,.01.02.02.03.01,0,.03,0,.04,0,0,0,.01,0,.02,0,.08,0,.12-.04.18-.08.14-.12-.11-.18-.2-.11h0s-.03-.01-.03-.04c0-.02,0-.04-.03-.04h0ZM74.22,12.59h0s0,0,0,0M78.16,15.41c-.08-.05-.18-.07-.26-.12-.07-.04-.19-.14-.17-.23.05,0,.09.04.13.05.02,0,.04,0,.06.02.02,0,.03.03.04.04.02,0,.04.01.05.02.03.01.05.05.09.06.02,0,.04,0,.06,0,.02,0,.04,0,.06,0,0,.05-.04.07,0,.12.02.03.05.05.08.07,0,0,.05.03.05.03.01.02,0,.04.02.06,0,.02.03.03.04.05,0,0,.02.05.03.05.05.04.07,0,.1-.03.01-.02.02-.03.04-.04.02-.02.04,0,.03-.05,0-.07-.25-.12-.13-.2.05-.04.1-.06.16-.06.08,0,.06-.07.15-.07,0-.02-.01-.03-.03-.05.02.01.04.03.04.05-.06,0-.12.04-.14.11-.01,0-.02,0-.03,0,0,.05.05.03.07.05.03.03-.02.07.05.08,0,.02,0,.05,0,.07.02,0,.05,0,.07,0s.05,0,.07,0c0,.03.01.03.03.03.04.01.04,0,.06-.02,0,0,0-.02,0-.02.01,0,.03,0,.04-.02,0,0,.03-.03.04-.03.01,0,.03,0,.04,0,.02,0,.03,0,.04,0,.05-.02.01-.01.03-.04.03-.04.08-.05.13-.03,0,.03,0,.05,0,.08.07.02.05.2.04.26,0,.05-.01.08-.06.11-.03.02-.06.02-.09.02-.02,0-.04,0-.07,0-.04.01-.07.06-.1.09-.03.03-.05.03-.08.03-.01,0-.03,0-.05,0-.05,0-.09.03-.14.04-.05,0-.1,0-.15.02,0-.07-.08-.07-.14-.04-.07.03-.07.1-.07.17,0,.1-.03.08-.11.07-.04,0-.09,0-.13,0-.03,0-.06,0-.09,0,0-.07,0-.08-.07-.09-.02,0-.04,0-.07,0-.03,0-.07,0-.1,0-.04,0-.11-.02-.13-.05-.04-.05.01-.06.03-.1.02-.05-.01-.08-.03-.13,0-.03,0-.04-.02-.05-.01,0-.07,0-.08,0-.11.02-.23.02-.35.03-.15.02-.26.09-.39.16-.06.03-.14.04-.2.02-.02,0-.07-.04-.1-.05,0-.02,0-.04,0-.06.08,0,.11,0,.18-.04.06-.03.14-.03.19-.07.07-.06,0-.09,0-.15.01-.05.08-.06.07-.13.03,0,.06,0,.09,0,.03-.04.05-.07.05-.12,0-.07,0-.09.08-.08.06.01.09.04.14-.01.03-.03.04-.08.09-.1.09-.04.12.1.18.14.04.03.09.06.13.08.02,0,.04,0,.06.01.02,0,.04.03.06.04.02,0,.04,0,.06.02.03.02.02.05.06.04,0,.06.02.12-.05.15-.02,0-.05,0-.07,0-.03,0-.04.02-.07.03.05.06.09.09.17.1,0-.02,0-.05,0-.07,0-.04,0-.02.03-.05.02-.03.06-.08.09-.1.05-.08-.04-.06-.03-.14,0,0,.02,0,.04.02.02,0,.03.02.05.02.01,0,.02-.01.01-.04M79.04,14.67c.07-.05.2-.03.29,0,.07.03.13.12.05.19-.06.06-.16.06-.24.06-.1,0-.15,0-.21.09-.06.08-.1.08-.19.11-.01-.01-.03-.03-.03-.04-.02-.04,0-.11,0-.16,0-.06.01-.13.02-.19,0-.05.02-.09.09-.07.04,0,.07.06.1.07,0,0,.01,0,.02,0,.04,0,.07-.04.11-.07M79.86,14.82s-.02-.05-.02-.08c0-.03-.04-.1-.01-.13.01-.01.02-.03.02-.04-.03-.02-.07,0-.1-.02-.03,0-.07-.03-.1-.05-.04-.02-.03-.04-.06-.08-.02-.03-.07-.03-.09-.06-.01-.03,0-.08-.01-.11,0-.02-.02-.02,0-.05,0-.02.02-.03.03-.05.03-.04.07-.15.13-.14,0,.05.05.06.04.11,0,0-.01,0-.02,0,0,0-.01,0-.02,0,0,.04,0,.07,0,.11-.1,0,.04.06.07.07.05.01.08,0,.12.04.03.03.05.08.07.11.03.05.04.05.1.06,0,.04,0,.08.03.11.03.03.08.04.07.08-.02.07-.13.08-.19.09,0,.02-.02.03-.04.03,0,0-.01,0-.02,0M73.39,13.26c-.03-.08.05-.04.07-.03.02.02.03.03.06.02.02,0,.04.02.05.04,0,.01.01.03,0,.04,0,.01,0,.03-.02.04,0,0-.02,0-.02,0,0,0,0,0,0-.01,0-.01,0-.03,0-.04,0-.02,0-.05-.02-.06,0,0-.02.03-.02.03-.01,0-.02,0-.03,0-.03,0-.05-.01-.06-.03M80.17,13.1h0s0,0,0,0M73.52,13.08c.05,0,.08-.09.12-.12,0,.04,0,.09,0,.13,0,.03-.05.09-.05.02-.03,0-.04.04-.07.04,0-.02,0-.05.02-.06h0s0,0,0-.02M74.74,12.75s-.06-.02-.07-.03h0s.04,0,.05,0h-.04s.2,0,.12.07c-.01.01-.07.02-.09.03-.01,0-.01.02-.03.03,0,.01-.03.02-.05.02.01,0,.03,0,.04-.02,0-.02-.03-.06-.03-.08,0,0,.02,0,.04,0,.03,0,.06,0,.06-.02M76.52,12.61h0s0,.04,0,.05c-.01.02-.04.03-.06.05-.03.04-.04.1-.08.12-.01-.08.09-.18.14-.22M73.4,13.03c0-.05.04-.07.08-.09.03-.02.08-.08.13-.08.04-.03.07.01.09-.06.01-.06,0-.15,0-.21.06.06.12.05.09.15,0,.02,0,.08-.02.09-.01.02-.03.02-.05.02-.01,0-.02,0-.03,0-.05.01-.08.08-.13.1-.04.02-.05.03-.08.06-.02.02-.03.03-.06.03,0,0,0,0-.02,0M74.25,12.49c.01-.06.04-.08.07-.12.02-.03.01-.07.02-.11,0-.07.01-.05.07-.09.05-.03.03-.06.06-.1.03-.03.07-.03.12-.03.06,0,.07.02.12.04.04.01.11,0,.1.06,0,0-.03,0-.04,0,0-.03,0-.03-.02-.03-.02.04-.05.04-.09.04,0,.07.06.05.09.09-.02.02-.04.03-.06.04-.01.05.05.02.03.08,0,.01-.08.06-.01.07-.02.06-.14.08-.19.1-.08.03-.05.08-.11.13-.06.06-.11.05-.19.06-.06,0-.11.08-.16.08,0-.02.03-.02.05-.04.02-.02.03-.05.04-.07.02-.03.04-.09.08-.1h-.01s.03-.06.04-.1M75.97,11.92s.03,0,.04,0c-.07.05-.14.12-.25.09-.08-.03.01-.03.05-.03.05,0,.1-.04.15-.04h0ZM77.05,10.72h0c-.06,0-.1.03-.1.03,0,0-.04.01-.04.03,0,0,.02.05,0,.04-.07-.04-.14.02-.21.03-.09.01-.13,0-.19.07-.06.06-.06.05-.15.06-.03,0-.06.03-.09.04-.01,0-.02,0-.04,0,.03-.01.05-.02.08-.04.07-.03.14,0,.16-.09-.03,0-.06,0-.09,0-.04,0-.09,0-.11-.02.05,0,.02-.05.06-.06-.08.02-.18,0-.27.02-.16.02-.3.13-.45.18-.19.05-.37.14-.55.2-.14.05-.27.07-.4.13-.76.47-1.38,1.16-1.75,1.99,0,.07,0,.15,0,.22,0,.1,0,.24-.03.33-.01.03-.03.07-.05.1-.02.03-.04.08-.06.11-.02.03-.04.03-.03.07,0,.03,0,.07.03.08.06.03.1-.1.11-.14.02-.06.05-.13.08-.19.03-.05.07-.02.11,0,.04.03.09.05.14-.01.03-.04.05-.09.07-.14.11,0,.18-.11.26.03.05-.12.19-.18.29-.07-.05.03-.11.04-.1.11.1,0,.36.09.31-.09-.03.02-.04.04-.07.05.05-.06.01-.16.05-.23.02-.04.07-.07.05-.11-.02-.04-.07,0-.09-.06.05,0,.12-.02.15.03.04.06,0,.14.09.14.02,0,.04,0,.06-.02.04-.02.08-.04.1.02.03.09-.17.12-.21.16-.07.05-.02.04,0,.09.03.06,0,.08-.01.13.03,0,.07-.03.1,0,0,0-.02.01-.03.02,0,.03-.01.05,0,.09.12,0,.06-.08.11-.15.02-.03.09-.04.07-.09,0-.03-.06-.03-.09-.03,0,0,.01-.03.02-.04-.02,0-.05,0-.05,0,.08,0,.21-.17.24-.23.02-.05.03-.1.02-.16,0-.05-.03-.09,0-.14.02-.04.08-.06.1-.1.02-.04.03-.07.06-.12.04-.06.04-.08.11-.09.02,0,.03,0,.04,0,.04,0,.06,0,.08-.06.11,0,.21.02.31.03.01.07-.06.07-.08.12-.03.06,0,.08-.04.14-.03.04-.09.06-.08.12,0,.05.06.08.1.06,0,.02.01.04,0,.06.02,0,.04,0,.06.01.03,0,.06.02.09,0,.04-.02.05-.08.09-.11.04-.04.08-.03.13-.05.06-.02.11-.06.17-.06.07,0,.14,0,.21,0,.07,0,.15.02.22,0,.05,0,.1-.03.15-.05.04-.01.1-.06.15-.05,0,.04.02.05.06.05,0-.06,0-.12.02-.17-.02,0-.04,0-.06.01-.01-.06-.06-.03-.11,0-.03.02-.05.03-.07.03.02-.05.09-.1.15-.09.05.01.13.11.11-.03.05,0,.36-.03.28-.12,0,0,.02-.02.02-.02-.02-.02-.08,0-.13.01-.04.01-.08.03-.11.02.03-.02.06-.03.09-.05.03-.02.04-.05.07-.07.03-.03.06-.02.1-.04.07-.03.05-.03.06-.11,0-.08.05-.11.1-.17.03-.03.03-.06.08-.07.02,0,.03,0,.05,0,.03,0,.05,0,.08-.03.08.07-.06.08-.08.11-.03.04.11.18.15.21.05.04.13.03.18.02-.02-.03-.06-.06-.05-.1.06,0,.08.04.13.06.06.01.1-.03.15-.04.1-.01.07.01.11-.07.02-.04.03-.12.09-.1,0,.08.01.19.13.18.09-.01.02-.16.11-.13,0,.1.01.14.08.21.06.06.08.13.06.21.02,0,.05.01.07,0,0-.05-.02-.17.05-.17,0,.1-.04.17-.02.27-.03-.02-.07-.07-.11-.08,0,.05.13.15.04.17,0,.07,0,.13,0,.2,0,0-.02,0-.03,0,0,.01.01.03.02.04-.03,0-.13-.09-.16-.12.07,0,.17,0,.15-.09-.01-.07-.1-.07-.16-.08-.03,0-.06,0-.1-.02-.03,0-.07-.02-.09-.03-.05,0-.05,0-.07.03-.02.03.02.08-.05.06-.02-.08.08-.15-.07-.14-.07,0-.14.04-.13.13-.07,0-.09.06-.11.11-.02.05-.04.12-.05.18-.01.05,0,.13-.02.18-.02.06-.07.08-.12.11-.11.08-.13.16-.13.29,0,.17.06.18.23.17-.02-.08.04-.11.08-.05.01.02.01.06.03.08.01.02.06.04.07.06.01.04-.06.12-.03.16.03.05.14,0,.11-.06,0,0,.01,0,.02,0,0,0,.02,0,.02,0,0-.01,0-.03,0-.04.09.02.04-.25.1-.3.01-.07-.02-.08-.05-.13-.02-.04-.03-.09-.03-.14,0-.06.02-.09.02-.14,0-.05-.04-.14,0-.18.05-.05.11,0,.1.06,0,.04-.05.07-.06.11-.02.07.02.09.04.14.02.06,0,.11,0,.17,0,0,0,0-.01,0,0,0,0,0-.01,0,0,0,0,.02,0,.02.06,0,.15,0,.2-.04.07-.06.05-.09.16-.08,0,.05-.17.16-.22.16,0,.08.01.13.03.2.02.05.03.18-.03.21-.09-.09-.11,0-.2.05-.06.03-.17.04-.25.04,0-.01,0-.03,0-.04,0,0,0,0,0,0,0,0-.01,0-.01,0,0-.05.02-.11,0-.16-.01-.04-.08-.11-.08-.03-.01,0-.02,0-.04.01-.03.11.06.24-.05.29-.05.03-.1.02-.13.09-.03.08,0,.07-.08.12,0,0,0,.02,0,.03-.02,0-.02.02-.05.03-.01.04-.02.05-.03.09-.02,0-.07.05-.09.05-.02,0-.03,0-.04-.02-.01,0-.03-.02-.05-.02-.04,0-.1.06-.14.08-.09.06,0,.07.06.1.09.04.12.16.12.25,0,.06.01.1-.05.12-.04.01-.13,0-.17,0-.08-.01-.22-.1-.29-.04,0,0,0,.02,0,.02-.04,0-.02.18-.02.22,0,.09-.04.12-.04.21.08-.02.01.09.02.13.01,0,.03,0,.05,0,.04,0,.09,0,.11,0,.03.02,0,.06.02.08.01.02.05.03.07.04-.02,0-.03-.01-.04,0-.03.02-.03.08-.05.11-.03.06-.08.04-.15.07-.04.02-.1.07-.13.11-.04.06,0,.12-.02.18-.02.05-.09.09-.13.1-.02,0-.03,0-.04,0-.02,0-.03,0-.05.01-.03.02-.04.06-.06.08-.06.05-.08.03-.11.1-.02.06-.05.1-.1.15-.03.03-.07.05-.09.09-.05.08,0,.03.02.11.01.04,0,.1,0,.13,0,.04,0,.11,0,.15-.01.04-.05.09-.07.12,0,.02-.03.03-.03.06,0,.04.02.03.03.05.01.05,0,.09.03.13.03.04.1.04.1.09.03.01.05.04.04.07.11-.03.05.1.08.15.03.04.1.07.14.11.1.09.21.16.34.17.07,0,.14,0,.21,0,.07,0,.15-.01.22,0,.02,0,.08.03.1.03.04,0,.03-.02.07-.05.06-.04.16-.02.23-.03.04,0,.08,0,.11,0,.04,0,.07-.05.11-.04.03,0,.05.04.07.06.04.04.02.03.08.04.03,0,.06,0,.1,0,.1,0,.21-.01.21.12,0,.07-.07.15-.03.22.03.05.17.11.22.14,0,.05.02.1.06.13,0,.08.05.09,0,.16-.03.04-.1.06-.13.1-.03.07.03.1.07.13.04.03.07.06.09.11.01.04.02.09.04.11.6-.15,1.15-.41,1.62-.77.02-.03,0-.06.01-.09.02-.04.05-.06.06-.11.04-.1.09-.19.14-.28.04-.08.05-.07.05-.16,0-.08.04-.13.06-.21.07-.24.24-.41.36-.61.06-.1.12-.23.16-.34.04-.12.02-.27.02-.4-.05.1-.13.19-.2.27-.05.05-.21.12-.21,0-.08-.02-.22,0-.27-.07-.03-.03-.03-.07-.06-.1-.03-.02-.07-.02-.1-.04,0-.06,0-.12-.04-.16-.03-.04-.01-.02-.06-.04-.05-.02-.03,0-.07-.04-.07-.07-.11-.24-.2-.26,0-.01-.01-.03,0-.04.06,0,.11-.08.16-.05.04.03,0,.1.08.08,0,.04.03.07.07.07,0,.11.07.05.13.11.03.03.02.05.04.09.03.06.03.04.09.06.06.02.15.07.18.13.01.03.01.07.02.09.01.04.04.06.04.1.02.01.03.03.04.06.06,0,.19-.2.23-.26.09-.1.12-.2.16-.32.02-.06.05-.11.07-.16.03-.05.02-.11.04-.16.02-.05.06-.08.08-.14.01-.06.01-.12.02-.18,0-.05,0-.13-.02-.17-.01,0-.04,0-.06,0-.03,0-.05,0-.06,0-.05-.02-.03-.07-.07-.1,0,.06-.02.14-.03.2-.01.06-.08.11-.12.14,0-.04.01-.09-.03-.12-.05.08-.2.01-.24-.06-.07-.13.1-.13.18-.09,0,0,0,.01,0,.02.06,0,.14.02.18-.03.04-.06-.02-.12.1-.1,0,0,0,.01,0,.02.12,0,.13-.07.18-.15.03-.04.05-.07.07-.12.01-.04,0-.12.07-.11,0,.05.05.05.07.07.06,0,.11,0,.15-.04.06.05.09.18.13.25.04.07.08.13.11.21.02.06.06.11.1.17.01-.14.02-.27.02-.41,0-2.04-1.36-3.76-3.22-4.3-.08,0-.28-.02-.28-.03-.01-.05-.1-.04-.17-.04-.03,0-.06,0-.07,0-.08-.01-.17-.04-.26-.05-.1-.01-.21,0-.32,0-.02,0-.06,0-.11,0h0Z"/>
    <g class="st0">
      <rect class="st1" x="70.74" y="8.87" width="12.51" height="12.49" transform="translate(8.24 52.92) rotate(-39.91)"/>
    </g>
  </g>
  <path class="st1" d="M25.02,45.9h.54l.51-3.17h.02l.5,3.17h.54l.75-4.22h-.54l-.32,2.1c-.01.09-.02.17-.04.25-.01.08-.02.16-.03.25-.01.08-.02.17-.03.27,0,.09-.02.2-.03.31h-.02c-.01-.12-.02-.22-.03-.32-.01-.1-.02-.18-.03-.27-.01-.08-.02-.17-.04-.25-.01-.08-.03-.17-.04-.26l-.34-2.09h-.54l-.33,2.09c-.01.09-.02.17-.04.25-.01.08-.02.16-.04.25-.01.08-.02.17-.03.27-.01.1-.03.2-.04.32h-.02c-.01-.12-.02-.23-.03-.33-.01-.1-.02-.19-.03-.27-.01-.08-.02-.16-.03-.24-.01-.08-.03-.16-.04-.25l-.32-2.09h-.6l.74,4.22ZM29.34,45.94c.19,0,.37-.04.53-.13.16-.08.29-.21.41-.39.11-.17.2-.4.26-.67.06-.27.09-.6.09-.97,0-.38-.03-.7-.09-.97-.06-.27-.15-.5-.26-.67-.11-.18-.25-.3-.41-.39-.16-.08-.33-.13-.53-.13-.26,0-.49.07-.68.22-.19.15-.34.38-.45.7-.11.32-.16.73-.16,1.23,0,.5.05.91.16,1.23.11.32.26.55.45.7.19.15.42.22.68.22M29.34,45.39c-.23,0-.4-.14-.51-.41-.11-.27-.16-.67-.16-1.2,0-.53.05-.93.16-1.19.11-.26.28-.4.51-.4s.39.13.49.4c.1.26.16.66.16,1.19,0,.53-.05.93-.16,1.2-.11.27-.27.41-.49.41M32.69,44.09c.15-.07.27-.17.36-.29.09-.12.15-.25.19-.39.04-.15.06-.3.05-.46,0-.3-.05-.54-.15-.73-.1-.19-.24-.32-.43-.41-.19-.09-.41-.13-.68-.13h-.92v4.21h.61v-1.64h.41l.59,1.64h.62l-.66-1.81ZM31.72,43.74v-1.53h.3c.16,0,.29.02.38.07.1.05.17.12.21.23.04.11.06.26.06.44s-.02.35-.06.46c-.04.12-.11.2-.21.25-.09.05-.21.07-.36.07h-.32ZM33.83,45.89h1.85v-.53h-1.22v-3.68h-.63v4.21ZM36.09,45.89h.83c.19,0,.37-.02.53-.06.16-.04.3-.11.42-.21.12-.1.23-.23.31-.39.09-.16.15-.36.19-.6.04-.24.07-.52.07-.85s-.02-.61-.06-.84c-.04-.24-.11-.44-.19-.6-.08-.16-.19-.29-.31-.39-.12-.1-.27-.17-.43-.21-.16-.04-.34-.06-.53-.06h-.83v4.21ZM36.72,45.36v-3.14h.28c.21,0,.37.05.49.15.12.11.21.27.26.5.05.23.08.53.07.9,0,.38-.02.68-.07.92-.05.23-.14.4-.26.51-.12.11-.28.16-.48.16h-.29ZM40.28,45.9h.53l.51-3.17h.02l.5,3.17h.53l.75-4.22h-.54l-.32,2.1c-.01.09-.02.17-.04.25-.01.08-.02.16-.03.25-.01.08-.02.17-.03.27-.01.09-.02.2-.03.31h-.02c-.01-.12-.02-.22-.03-.32-.01-.1-.02-.18-.04-.27-.01-.08-.03-.17-.04-.25-.01-.08-.03-.17-.04-.26l-.34-2.09h-.54l-.33,2.09c-.01.09-.02.17-.04.25-.01.08-.02.16-.04.25-.01.08-.02.17-.04.27-.01.1-.03.2-.04.32h-.02c-.01-.12-.02-.23-.03-.33-.01-.1-.02-.19-.03-.27-.01-.08-.02-.16-.03-.24-.01-.08-.02-.16-.04-.25l-.32-2.09h-.6l.74,4.22ZM43.58,45.89h.63v-4.21h-.63v4.21ZM44.85,45.89h.83c.19,0,.37-.02.53-.06.16-.04.3-.11.42-.21.12-.1.23-.23.31-.39.09-.16.15-.36.19-.6.04-.24.07-.52.07-.85s-.02-.61-.06-.84c-.04-.24-.11-.44-.19-.6-.08-.16-.19-.29-.31-.39-.12-.1-.26-.17-.42-.21-.16-.04-.34-.06-.54-.06h-.83v4.21ZM45.48,45.36v-3.14h.28c.21,0,.37.05.49.15.12.11.21.27.26.5.05.23.08.53.07.9,0,.38-.02.68-.07.92-.05.23-.14.4-.26.51-.12.11-.28.16-.48.16h-.28ZM47.69,45.89h1.91v-.53h-1.28v-1.42h.87v-.52h-.87v-1.18h1.22v-.55h-1.85v4.21ZM51.05,45.89h.63v-4.21h-.63v4.21ZM52.32,45.89h.5v-3.19h.02s.03.08.05.15c.02.06.05.13.07.21.03.07.06.15.09.23.03.08.06.15.09.22l.95,2.39h.54v-4.21h-.5v2.95h-.01c-.04-.12-.08-.24-.13-.38-.05-.14-.1-.29-.17-.45l-.81-2.11h-.67v4.21ZM55.24,45.89h.83c.19,0,.37-.02.53-.06.16-.04.3-.11.42-.21.12-.1.23-.23.31-.39.09-.16.15-.36.19-.6.04-.24.07-.52.07-.85s-.02-.61-.06-.84c-.04-.24-.11-.44-.19-.6-.08-.16-.19-.29-.31-.39-.12-.1-.27-.17-.43-.21-.16-.04-.34-.06-.53-.06h-.83v4.21ZM55.86,45.36v-3.14h.28c.21,0,.37.05.49.15.12.11.21.27.26.5.05.23.08.53.07.9,0,.38-.02.68-.07.92-.05.23-.14.4-.26.51-.12.11-.28.16-.48.16h-.29ZM59.18,45.94c.21,0,.38-.03.53-.09.14-.06.26-.15.34-.27.09-.12.15-.26.19-.43.04-.17.06-.37.06-.58v-2.88h-.59v2.83c0,.2-.01.36-.04.49-.03.13-.08.23-.16.3-.08.07-.18.1-.31.1s-.24-.03-.32-.1c-.08-.07-.13-.17-.16-.3-.03-.13-.05-.3-.05-.5v-2.82h-.61v2.89c0,.21.02.4.06.57.04.17.1.31.19.43.09.12.2.21.35.27.14.06.32.09.53.09M61.85,45.96c.22,0,.41-.05.57-.13.16-.09.29-.21.38-.37.09-.16.14-.34.14-.55,0-.16-.03-.31-.09-.45-.06-.13-.13-.26-.22-.37-.09-.11-.19-.21-.3-.31-.11-.1-.22-.19-.33-.28-.11-.09-.21-.18-.3-.28-.09-.09-.17-.19-.22-.29-.06-.1-.08-.21-.09-.33,0-.14.04-.24.11-.31s.17-.11.31-.11c.1,0,.18.03.25.08.07.05.13.13.18.23.05.1.09.23.13.38l.55-.14c-.05-.22-.12-.41-.21-.58-.09-.16-.2-.29-.35-.38-.14-.09-.32-.14-.53-.14-.21,0-.39.04-.55.12-.16.08-.28.2-.37.35-.09.15-.13.33-.13.54,0,.16.03.31.09.44.06.13.13.26.22.37.09.11.19.22.3.32s.22.19.33.29c.11.09.21.18.3.28.09.09.17.19.22.29.06.1.08.2.09.32,0,.1-.02.18-.05.25-.03.07-.09.13-.16.17-.07.04-.16.06-.27.06-.12,0-.23-.03-.31-.09-.08-.06-.16-.15-.21-.26-.06-.11-.1-.25-.13-.42l-.57.11c.04.24.11.45.21.63.1.18.23.32.39.42.16.1.37.15.62.15M63.87,45.89h.63v-3.66h.79v-.55h-2.22v.55h.8v3.66ZM67.27,44.09c.15-.07.27-.17.36-.29.09-.12.15-.25.19-.39.04-.15.06-.3.05-.46,0-.3-.05-.54-.15-.73-.1-.19-.24-.32-.43-.41-.19-.09-.41-.13-.68-.13h-.92v4.21h.61v-1.64h.41l.59,1.64h.62l-.65-1.81ZM66.3,43.74v-1.53h.3c.16,0,.29.02.38.07.1.05.17.12.21.23.04.11.06.26.06.44,0,.19-.02.35-.06.46-.04.12-.11.2-.21.25-.09.05-.21.07-.36.07h-.32ZM68.44,45.89h.63v-4.21h-.63v4.21ZM70.24,44.83h.93l.22,1.06h.61l-.96-4.23h-.61l-.96,4.23h.55l.22-1.06ZM71.08,44.34h-.73l.13-.63c.02-.11.04-.21.06-.3.02-.1.04-.19.06-.29.02-.1.04-.2.06-.31.02-.11.03-.24.05-.37h.02c.02.14.03.26.05.37.02.11.04.22.05.32.02.1.04.2.06.3.02.1.04.2.06.31l.13.61ZM72.39,45.89h1.85v-.53h-1.23v-3.68h-.63v4.21ZM76.63,43.67c.1-.09.19-.17.28-.26.09-.09.17-.18.24-.28.07-.1.13-.2.17-.32.04-.12.06-.25.06-.4,0-.11-.01-.21-.04-.3-.03-.1-.07-.18-.13-.26-.06-.07-.14-.13-.24-.17-.1-.04-.22-.06-.36-.07-.17,0-.31.04-.44.11-.13.07-.23.18-.3.33-.07.15-.11.33-.11.54,0,.12.01.24.03.35.02.11.05.22.08.33.04.11.08.22.12.33-.09.08-.18.16-.26.25-.08.09-.16.18-.23.29-.07.1-.12.22-.16.35-.04.12-.06.27-.06.42,0,.22.04.4.13.56.08.15.21.27.38.35.16.08.37.12.61.12.2,0,.38-.03.54-.1.15-.07.29-.16.4-.27.12.1.26.19.39.25.14.06.28.1.44.1v-.55c-.09-.01-.18-.04-.27-.09-.09-.04-.17-.1-.26-.17.06-.13.12-.28.16-.43.04-.15.08-.31.11-.47.03-.16.05-.33.07-.5h-.52c0,.18-.02.35-.05.52-.03.17-.07.33-.13.47-.08-.1-.15-.2-.22-.31-.07-.11-.14-.21-.21-.33-.03-.06-.07-.12-.11-.19-.04-.07-.07-.14-.11-.21M76.44,43.21c-.03-.08-.05-.15-.07-.23-.02-.07-.04-.14-.05-.21-.01-.07-.02-.14-.02-.22,0-.09.01-.17.03-.24.02-.07.06-.12.1-.16.04-.04.1-.06.17-.06.06,0,.11.02.15.05.04.03.06.07.08.13.01.05.02.12.02.19,0,.11-.02.21-.06.3-.04.09-.08.17-.15.24-.06.07-.13.15-.21.22M76.97,45.21c-.07.08-.15.14-.24.18-.09.04-.19.07-.3.07-.13,0-.24-.03-.32-.08-.08-.05-.14-.13-.18-.22-.04-.09-.06-.19-.06-.31,0-.1.01-.2.04-.29.03-.09.07-.17.12-.25.05-.08.11-.16.17-.23.03.06.07.12.1.19.04.06.07.12.11.17.08.13.17.26.26.39.09.13.19.26.29.37M80.52,45.96c.22,0,.41-.05.57-.13.16-.09.29-.21.38-.37.09-.16.14-.34.14-.55,0-.16-.03-.31-.09-.45-.06-.13-.13-.26-.22-.37-.09-.11-.19-.21-.3-.31-.11-.1-.22-.19-.33-.28-.11-.09-.21-.18-.3-.28-.09-.09-.17-.19-.22-.29-.06-.1-.08-.21-.09-.33,0-.14.04-.24.11-.31.07-.07.17-.11.31-.11.1,0,.18.03.25.08.07.05.13.13.18.23.05.1.09.23.13.38l.55-.14c-.05-.22-.12-.41-.21-.58-.09-.16-.2-.29-.35-.38-.14-.09-.32-.14-.53-.14-.21,0-.39.04-.55.12-.16.08-.28.2-.36.35-.09.15-.13.33-.13.54,0,.16.03.31.09.44.06.13.13.26.22.37.09.11.19.22.3.32.11.1.22.19.33.29.11.09.21.18.3.28.09.09.17.19.22.29.06.1.09.2.09.32,0,.1-.02.18-.05.25-.03.07-.09.13-.16.17-.07.04-.16.06-.27.06-.12,0-.23-.03-.31-.09-.09-.06-.16-.15-.21-.26-.06-.11-.1-.25-.13-.42l-.57.11c.04.24.11.45.21.63.1.18.23.32.39.42.16.1.37.15.62.15M82.57,45.89h.62v-1.57l.92-2.64h-.59l-.61,1.95h-.02l-.61-1.95h-.63l.92,2.64v1.57ZM85.29,45.96c.22,0,.41-.05.57-.13.16-.09.29-.21.38-.37.09-.16.14-.34.14-.55,0-.16-.03-.31-.09-.45-.06-.13-.13-.26-.22-.37-.09-.11-.19-.21-.31-.31-.11-.1-.22-.19-.33-.28-.11-.09-.21-.18-.31-.28-.09-.09-.17-.19-.22-.29-.06-.1-.09-.21-.09-.33,0-.14.04-.24.11-.31.07-.07.17-.11.31-.11.1,0,.18.03.25.08.07.05.13.13.18.23.05.1.09.23.13.38l.55-.14c-.05-.22-.12-.41-.21-.58-.09-.16-.21-.29-.35-.38-.14-.09-.32-.14-.53-.14-.21,0-.39.04-.55.12-.16.08-.28.2-.36.35-.09.15-.13.33-.13.54,0,.16.03.31.09.44.06.13.13.26.22.37.09.11.19.22.3.32.11.1.22.19.33.29.11.09.21.18.31.28.09.09.17.19.22.29.06.1.08.2.09.32,0,.1-.02.18-.05.25-.03.07-.09.13-.16.17-.07.04-.16.06-.27.06-.12,0-.23-.03-.31-.09-.09-.06-.16-.15-.21-.26-.06-.11-.1-.25-.13-.42l-.57.11c.04.24.11.45.21.63.1.18.23.32.39.42.16.1.37.15.62.15M87.31,45.89h.63v-3.66h.79v-.55h-2.22v.55h.8v3.66ZM89.13,45.89h1.91v-.53h-1.28v-1.42h.87v-.52h-.87v-1.18h1.22v-.55h-1.84v4.21ZM91.49,45.89h.5v-3.23h.02c0,.07.02.15.03.24.01.09.03.19.05.29.02.1.04.2.06.3.02.1.04.2.07.29l.44,2.11h.47l.43-2.07c.03-.13.06-.27.09-.4.03-.13.06-.27.08-.4.02-.13.04-.25.06-.37h.01v3.24h.56v-4.21h-.76l-.67,3.26h-.02l-.67-3.26h-.76v4.21ZM96.01,45.96c.22,0,.41-.05.57-.13.16-.09.29-.21.38-.37.09-.16.14-.34.14-.55,0-.16-.03-.31-.09-.45-.06-.13-.13-.26-.22-.37-.09-.11-.19-.21-.3-.31-.11-.1-.22-.19-.33-.28-.11-.09-.21-.18-.31-.28-.09-.09-.17-.19-.22-.29-.06-.1-.09-.21-.09-.33,0-.14.04-.24.11-.31.07-.07.17-.11.31-.11.1,0,.18.03.25.08.07.05.13.13.18.23.05.1.09.23.13.38l.55-.14c-.05-.22-.12-.41-.21-.58-.09-.16-.2-.29-.35-.38-.14-.09-.32-.14-.53-.14-.21,0-.39.04-.55.12-.16.08-.28.2-.37.35-.09.15-.13.33-.13.54,0,.16.03.31.09.44.06.13.13.26.22.37.09.11.19.22.3.32.11.1.22.19.33.29.11.09.21.18.31.28.09.09.17.19.22.29.06.1.08.2.09.32,0,.1-.02.18-.05.25-.03.07-.09.13-.16.17-.07.04-.16.06-.27.06-.12,0-.23-.03-.31-.09-.08-.06-.16-.15-.21-.26-.06-.11-.1-.25-.13-.42l-.57.11c.04.24.12.45.21.63.1.18.23.32.39.42.16.1.37.15.62.15M98.57,45.89h1.91v-.53h-1.28v-1.42h.87v-.52h-.87v-1.18h1.22v-.55h-1.85v4.21ZM100.93,45.89h.5v-3.19h.02s.03.08.05.15c.02.06.04.13.07.21.03.07.06.15.09.23.03.08.06.15.09.22l.95,2.39h.53v-4.21h-.5v2.95h-.01c-.04-.12-.08-.24-.13-.38-.05-.14-.11-.29-.17-.45l-.81-2.11h-.67v4.21ZM104.9,45.93c.13,0,.25-.03.36-.08.1-.05.19-.12.26-.21.07-.09.12-.19.16-.3h.01v.54h.44v-2.05h-1.09v.51h.56c0,.24-.03.44-.07.59-.05.15-.11.27-.2.34-.09.07-.19.11-.33.11-.15,0-.27-.06-.37-.17-.1-.11-.17-.29-.22-.53-.05-.24-.07-.54-.07-.92s.02-.68.07-.91c.05-.23.12-.4.21-.51.09-.11.21-.16.35-.16.11,0,.2.03.27.1.07.06.13.17.18.31.04.14.08.33.11.56l.57-.07c-.04-.33-.11-.61-.2-.82-.09-.22-.21-.38-.36-.48-.15-.11-.34-.16-.56-.16-.27,0-.5.07-.68.23-.19.15-.33.39-.43.7-.1.32-.15.73-.15,1.22,0,.49.04.9.13,1.22.08.32.22.55.39.71.18.16.4.23.67.23M106.72,45.89h.63v-4.21h-.63v4.21ZM107.99,45.89h.5v-3.19h.02s.03.08.05.15c.02.06.04.13.07.21.03.07.06.15.09.23.03.08.06.15.08.22l.95,2.39h.54v-4.21h-.5v2.95h-.01c-.04-.12-.08-.24-.13-.38-.05-.14-.1-.29-.17-.45l-.81-2.11h-.67v4.21ZM110.91,45.89h1.91v-.53h-1.28v-1.42h.87v-.52h-.87v-1.18h1.22v-.55h-1.85v4.21ZM113.26,45.89h1.91v-.53h-1.28v-1.42h.87v-.52h-.87v-1.18h1.22v-.55h-1.85v4.21ZM117.19,44.09c.15-.07.27-.17.35-.29.09-.12.15-.25.19-.39.04-.15.06-.3.06-.46,0-.3-.05-.54-.15-.73-.1-.19-.24-.32-.43-.41-.19-.09-.41-.13-.68-.13h-.92v4.21h.61v-1.64h.41l.59,1.64h.62l-.65-1.81ZM116.22,43.74v-1.53h.3c.16,0,.29.02.38.07.1.05.17.12.21.23.04.11.06.26.06.44,0,.19-.02.35-.06.46-.04.12-.11.2-.21.25-.09.05-.21.07-.36.07h-.33ZM119.31,45.96c.22,0,.41-.05.57-.13.16-.09.29-.21.38-.37.09-.16.14-.34.14-.55,0-.16-.03-.31-.09-.45-.06-.13-.13-.26-.22-.37-.09-.11-.19-.21-.31-.31-.11-.1-.22-.19-.33-.28-.11-.09-.21-.18-.3-.28-.09-.09-.17-.19-.22-.29-.06-.1-.08-.21-.09-.33,0-.14.04-.24.11-.31.07-.07.17-.11.31-.11.1,0,.18.03.25.08.07.05.13.13.18.23.05.1.09.23.13.38l.55-.14c-.05-.22-.12-.41-.21-.58-.09-.16-.2-.29-.35-.38-.14-.09-.32-.14-.53-.14-.21,0-.39.04-.55.12-.16.08-.28.2-.36.35-.09.15-.13.33-.13.54,0,.16.03.31.09.44.06.13.13.26.22.37.09.11.19.22.3.32.11.1.22.19.33.29.11.09.21.18.3.28.09.09.17.19.22.29.05.1.08.2.09.32,0,.1-.02.18-.05.25-.03.07-.09.13-.16.17-.07.04-.16.06-.27.06-.12,0-.23-.03-.31-.09-.08-.06-.16-.15-.21-.26-.06-.11-.1-.25-.13-.42l-.57.11c.04.24.11.45.21.63.1.18.23.32.39.42.16.1.37.15.62.15"/>
</svg>
